<svg width="32" height="32" viewBox="0 0 32 32" xmlns="http://www.w3.org/2000/svg">
  <!-- Pixel art alien invader type 3 (elite) -->
  <rect x="4" y="0" width="24" height="4" fill="#ffff00"/>

  <rect x="0" y="4" width="4" height="4" fill="#ffff00"/>
  <rect x="4" y="4" width="24" height="4" fill="#ffff00"/>
  <rect x="28" y="4" width="4" height="4" fill="#ffff00"/>

  <rect x="0" y="8" width="32" height="4" fill="#ffff00"/>

  <rect x="4" y="12" width="4" height="4" fill="#ffff00"/>
  <rect x="8" y="12" width="4" height="4" fill="#000000"/>
  <rect x="12" y="12" width="8" height="4" fill="#ffff00"/>
  <rect x="20" y="12" width="4" height="4" fill="#000000"/>
  <rect x="24" y="12" width="4" height="4" fill="#ffff00"/>

  <rect x="4" y="16" width="24" height="4" fill="#ffff00"/>

  <rect x="8" y="20" width="4" height="4" fill="#ffff00"/>
  <rect x="12" y="20" width="8" height="4" fill="#ffff00"/>
  <rect x="20" y="20" width="4" height="4" fill="#ffff00"/>

  <rect x="12" y="24" width="4" height="4" fill="#ffff00"/>
  <rect x="16" y="24" width="4" height="4" fill="#ffff00"/>

  <rect x="8" y="28" width="4" height="4" fill="#ffff00"/>
  <rect x="20" y="28" width="4" height="4" fill="#ffff00"/>
</svg>
