<svg width="32" height="32" viewBox="0 0 32 32" xmlns="http://www.w3.org/2000/svg">
  <!-- Pixel art alien invader type 1 -->
  <rect x="8" y="4" width="4" height="4" fill="#00ff00"/>
  <rect x="20" y="4" width="4" height="4" fill="#00ff00"/>

  <rect x="4" y="8" width="4" height="4" fill="#00ff00"/>
  <rect x="8" y="8" width="4" height="4" fill="#00ff00"/>
  <rect x="12" y="8" width="8" height="4" fill="#00ff00"/>
  <rect x="20" y="8" width="4" height="4" fill="#00ff00"/>
  <rect x="24" y="8" width="4" height="4" fill="#00ff00"/>

  <rect x="4" y="12" width="24" height="4" fill="#00ff00"/>

  <rect x="0" y="16" width="4" height="4" fill="#00ff00"/>
  <rect x="4" y="16" width="8" height="4" fill="#00ff00"/>
  <rect x="12" y="16" width="8" height="4" fill="#00ff00"/>
  <rect x="20" y="16" width="8" height="4" fill="#00ff00"/>
  <rect x="28" y="16" width="4" height="4" fill="#00ff00"/>

  <rect x="0" y="20" width="32" height="4" fill="#00ff00"/>

  <rect x="4" y="24" width="4" height="4" fill="#00ff00"/>
  <rect x="12" y="24" width="8" height="4" fill="#00ff00"/>
  <rect x="24" y="24" width="4" height="4" fill="#00ff00"/>

  <rect x="8" y="28" width="4" height="4" fill="#00ff00"/>
  <rect x="20" y="28" width="4" height="4" fill="#00ff00"/>
</svg>
