<svg width="32" height="32" viewBox="0 0 32 32" xmlns="http://www.w3.org/2000/svg">
  <!-- Pixel art alien invader type 2 -->
  <rect x="12" y="0" width="8" height="4" fill="#ff00ff"/>

  <rect x="8" y="4" width="4" height="4" fill="#ff00ff"/>
  <rect x="12" y="4" width="8" height="4" fill="#ff00ff"/>
  <rect x="20" y="4" width="4" height="4" fill="#ff00ff"/>

  <rect x="4" y="8" width="24" height="4" fill="#ff00ff"/>

  <rect x="0" y="12" width="8" height="4" fill="#ff00ff"/>
  <rect x="8" y="12" width="4" height="4" fill="#ff00ff"/>
  <rect x="12" y="12" width="8" height="4" fill="#ff00ff"/>
  <rect x="20" y="12" width="4" height="4" fill="#ff00ff"/>
  <rect x="24" y="12" width="8" height="4" fill="#ff00ff"/>

  <rect x="0" y="16" width="32" height="4" fill="#ff00ff"/>

  <rect x="4" y="20" width="4" height="4" fill="#ff00ff"/>
  <rect x="12" y="20" width="8" height="4" fill="#ff00ff"/>
  <rect x="24" y="20" width="4" height="4" fill="#ff00ff"/>

  <rect x="4" y="24" width="4" height="4" fill="#ff00ff"/>
  <rect x="24" y="24" width="4" height="4" fill="#ff00ff"/>

  <rect x="8" y="28" width="4" height="4" fill="#ff00ff"/>
  <rect x="20" y="28" width="4" height="4" fill="#ff00ff"/>
</svg>
